<svg xmlns="http://www.w3.org/2000/svg" data-name="Layer 1" viewBox="0 0 1920 1080"><defs><linearGradient id="a" x1="908.2" x2="1022.03" y1="603.33" y2="661.67" gradientTransform="matrix(1 0 0 -1 0 1018.63)" gradientUnits="userSpaceOnUse"><stop offset="0" stop-color="#4e4675"/><stop offset=".55" stop-color="#4e4675" stop-opacity=".41"/><stop offset=".97" stop-color="#4e4675" stop-opacity="0"/></linearGradient></defs><rect width="1920" height="1080" fill="#5a78ff" rx="10" ry="10"/><g data-name="Layer 1"><path fill="#fff" d="M905.61 618.23c-13.84 0-26.99-8.2-32.61-21.76L751.34 302.75c-3.6-8.7-3.6-18.28 0-26.97 3.6-8.7 10.38-15.47 19.08-19.08l127.4-52.77c8.7-3.6 18.27-3.6 26.97 0s15.47 10.38 19.07 19.08l121.66 293.72c7.44 17.95-1.12 38.61-19.07 46.05l-127.4 52.77c-4.4 1.82-8.95 2.68-13.44 2.68M777.68 274.24a16.16 16.16 0 0 0-8.8 8.8 16.18 16.18 0 0 0 0 12.45l121.66 293.72c3.43 8.28 12.95 12.24 21.25 8.8l127.4-52.77c8.28-3.43 12.23-12.96 8.8-21.25L926.33 230.27a16.16 16.16 0 0 0-8.8-8.8 16.16 16.16 0 0 0-12.44 0l-127.4 52.77Zm-3.63-8.77h.06z"/><path fill="#fff" d="M1017.76 417.22c-36.27 15.11-66.86 35.97-86.81 61.06l-51.38-124.05a217 217 0 0 1 86.81-60.94c36.27-15.11 73.27-22.43 104.52-18.14l51.38 124.05a216.9 216.9 0 0 0-104.52 18.01Z"/><path fill="url(#a)" d="M1017.76 417.22c-36.27 15.11-66.86 35.97-86.81 61.06l-51.38-124.05a217 217 0 0 1 86.81-60.94c36.27-15.11 73.27-22.43 104.52-18.14l51.38 124.05a216.9 216.9 0 0 0-104.52 18.01Z" opacity=".25"/><path fill="#fff" d="M1034.27 455.06c-39.48 0-75.57 7.62-103.55 23.21v-125.5a216.9 216.9 0 0 1 103.55-23.21c39.48 0 76.29 7.31 103.55 23.21v125.5a216.8 216.8 0 0 0-103.55-23.21M556.7 824.61l31.92-100.89c.33-1.4 1.53-2.42 2.96-2.54h16.02c1.44.2 2.64 1.18 3.14 2.54l24.85 63.66c.48 1.27 1.75 1.39 2.18 0l24.72-63.66c.5-1.36 1.71-2.34 3.14-2.54h16.02c1.43.12 2.63 1.14 2.96 2.54l31.25 100.89c.57 1.21.06 2.65-1.15 3.22-.38.18-.79.26-1.21.23h-18.92c-1.35.06-2.55-.86-2.84-2.18l-20.19-65.53c-.3-1.27-1.75-1.27-2.18 0l-24.18 65.05a3.56 3.56 0 0 1-3.45 2.66h-11c-1.61.03-3-1.09-3.32-2.66l-24.66-65.05c-.48-1.27-1.75-1.27-2.06 0l-20.74 65.53a2.855 2.855 0 0 1-2.96 2.18h-18.14c-1.3.05-2.39-.97-2.44-2.27-.01-.41.08-.81.27-1.18Zm165.39-35.97c-.47-23.37 18.1-42.69 41.46-43.15 23.37-.47 42.69 18.1 43.15 41.46.47 23.37-18.1 42.69-41.46 43.15h-.84c-22.59.77-41.53-16.92-42.3-39.51-.02-.65-.03-1.31-.02-1.96Zm62.87 0c.88-11.45-7.7-21.44-19.15-22.32s-21.44 7.7-22.32 19.15c-.08 1.05-.08 2.11 0 3.17-.88 11.45 7.7 21.44 19.15 22.32s21.44-7.7 22.32-19.15c.08-1.05.08-2.11 0-3.17m59.06 33c-1.57-1.27-2.96-.79-2.96 1.39v2.24c0 1.59-1.25 2.9-2.84 2.96h-14.75a3.076 3.076 0 0 1-2.96-2.96V724.19c.06-1.61 1.35-2.9 2.96-2.96h15.54c1.59.06 2.84 1.37 2.84 2.96v28.53c0 2.06 1.39 2.66 3.63 1.09a34.5 34.5 0 0 1 20.61-6.89c21.52 0 38.02 18.14 38.02 41.47 1.04 21.84-15.82 40.39-37.67 41.43-.34.02-.68.03-1.02.04-7.9-.02-15.52-2.95-21.4-8.22m38.69-33c.62-11.47-8.18-21.27-19.64-21.89-11.47-.62-21.27 8.18-21.89 19.64-.04.75-.04 1.49 0 2.24-.44 11.61 8.62 21.38 20.23 21.81.13 0 .25 0 .38.01 11.78-.23 21.15-9.97 20.92-21.75v-.07Zm34.4-60.09c0-6.68 5.41-12.09 12.09-12.09s12.09 5.41 12.09 12.09-5.41 12.09-12.09 12.09-12.09-5.41-12.09-12.09m1.09 96.72v-73.15c0-1.59 1.25-2.9 2.84-2.96h15.54c1.61.06 2.9 1.35 2.96 2.96v73.15a3.076 3.076 0 0 1-2.96 2.96h-15.54a2.966 2.966 0 0 1-2.78-2.96zm38.93-24.18v-76.9c0-1.59 1.25-2.9 2.84-2.96h15.54c1.61.06 2.9 1.35 2.96 2.96v77.62c0 5.02 2.18 8.34 7.68 8.34a2.96 2.96 0 0 1 2.96 2.96v12.88a2.956 2.956 0 0 1-2.96 2.84c-20.67 0-29.02-6.77-29.02-27.75ZM994.85 789c0-22.57 18.3-40.87 40.87-40.87s40.87 18.3 40.87 40.87c0 2.84-.79 5.2-3.63 5.2h-54.04c-1.39 0-1.87.79-1.75 2.06 1.34 9.39 9.69 16.17 19.16 15.54 5.74.08 11.21-2.41 14.93-6.77a6.05 6.05 0 0 1 5.02-2.54h14.27c2.54 0 3.63 1.75 2.66 4.23-10.07 20.53-34.88 29.01-55.41 18.94a41.4 41.4 0 0 1-23.17-37.08l.24.42Zm57.37-7.26c1.09 0 1.57-.48 1.39-1.75-1.65-8.68-9.31-14.91-18.14-14.75-8.63.01-16.13 5.94-18.14 14.33-.3 1.09 0 2.18 1.27 2.18h33.61Zm37.42 43.53V724.19c0-1.59 1.25-2.9 2.84-2.96h49.51c22.61 0 38.02 13.18 38.02 35.36s-17.47 35.85-39.11 35.85h-26.24a2.59 2.59 0 0 0-2.85 2.32c-.02.22-.02.43.01.65v29.86a3.076 3.076 0 0 1-2.96 2.96h-16.32a2.96 2.96 0 0 1-2.9-2.96m51.26-50.9c9.41-.13 16.94-7.87 16.81-17.28v-.19c.38-8.91-6.54-16.43-15.45-16.81-.45-.02-.91-.02-1.36 0h-26.42c-1.87 0-2.66.97-2.66 2.84v28.59c0 1.87.79 2.84 2.66 2.84h26.42Zm46.49 14.27c-.84-22.05 16.35-40.61 38.41-41.45.19 0 .39-.01.58-.02 7.72.04 15.16 2.9 20.92 8.04 1.39 1.27 2.96 1.09 2.96-.79v-2.36c0-1.57 1.27-2.84 2.84-2.84h14.75c1.61.06 2.9 1.35 2.96 2.96v52.05c0 3.93 1.39 5.68 4.11 6.05a2.72 2.72 0 0 1 2.66 2.54v13.66c0 1.47-1.19 2.66-2.66 2.66-10.4 0-16.5-2.96-19.95-8.95-.97-1.57-2.06-1.87-3.63-.3a34.7 34.7 0 0 1-25.33 10.52c-21.99-.64-39.3-18.99-38.66-40.98 0-.26.02-.53.03-.79Zm62.87 0c.87-11.42-7.67-21.38-19.09-22.26-11.42-.87-21.38 7.67-22.26 19.09-.08 1.05-.08 2.11 0 3.16-.87 11.42 7.67 21.38 19.09 22.26 11.42.87 21.38-7.67 22.26-19.09.08-1.05.08-2.11 0-3.16m34.88 66.86v-12.76a2.956 2.956 0 0 1 2.96-2.84c10.12.78 19.46-5.46 22.61-15.11.53-2.02.32-4.17-.6-6.05l-28.9-65.41a2.841 2.841 0 0 1 2.54-4.23h15.54c1.57 0 2.54 1.27 3.14 2.84l18.14 41.83c1.27 3.32 3.32 3.14 4.72 0l17.29-41.95c.6-1.57 1.39-2.54 2.96-2.54h15.17c1.5-.08 2.78 1.07 2.86 2.57.02.4-.05.8-.2 1.17l-29.68 70.55c-10.82 25.63-22.31 35.18-45.28 35.18-1.7.1-3.16-1.19-3.26-2.89v-.37Z"/></g></svg>